<svg version="1.1" id="Layer_1" xmlns="http://www.w3.org/2000/svg" xmlns:xlink="http://www.w3.org/1999/xlink" x="0px" y="0px"
	 width="100%" viewBox="0 0 871 846" enable-background="new 0 0 871 846" xml:space="preserve">
<path fill="#000000" opacity="1.000000" stroke="none" 
	d="
M519.000000,847.000000 
	C346.000061,847.000000 173.500107,847.000000 1.000116,847.000000 
	C1.000077,565.000122 1.000077,283.000275 1.000039,1.000305 
	C291.333099,1.000203 581.666199,1.000203 871.999512,1.000102 
	C871.999634,282.999695 871.999634,564.999390 871.999817,846.999512 
	C754.500000,847.000000 637.000000,847.000000 519.000000,847.000000 
M274.101654,108.827049 
	C265.980316,113.461021 257.224274,117.260429 249.846069,122.871574 
	C215.513153,148.981827 181.477753,175.486481 147.514862,202.078568 
	C134.078552,212.598846 120.594742,223.159882 108.095528,234.741592 
	C99.077965,243.097214 94.667969,254.472183 93.388733,267.498596 
	C93.311195,268.996429 93.233665,270.494293 92.994110,272.918030 
	C92.989601,413.725128 92.961235,554.532227 93.066055,695.339233 
	C93.070335,701.088501 93.905716,706.924438 95.075142,712.570557 
	C100.168083,737.159790 124.434898,759.925720 149.336502,763.895325 
	C150.555374,763.886292 151.774231,763.877319 153.736694,764.092651 
	C154.761002,764.213562 155.785309,764.334473 157.431412,764.940674 
	C159.284958,764.907410 161.138504,764.874207 163.917511,765.005859 
	C304.376556,765.010925 444.835785,765.144775 585.294434,764.907898 
	C612.036072,764.862793 633.138550,753.001953 647.566467,730.314697 
	C678.912659,681.024597 710.080994,631.621155 741.237305,582.210632 
	C750.414429,567.656860 755.161926,551.911560 755.124817,534.440369 
	C754.912659,434.469971 755.022461,334.498871 755.022522,234.528000 
	C755.022522,200.038040 755.216675,165.546219 754.884338,131.059448 
	C754.800537,122.362061 751.686523,114.432693 743.000671,109.415901 
	C742.675232,109.327850 742.349731,109.239807 741.593384,108.990479 
	C741.593384,108.990479 741.134766,108.953026 740.831604,108.310219 
	C739.556396,107.910484 738.281128,107.510757 736.576599,106.983620 
	C736.576599,106.983620 736.129639,106.956924 735.948181,106.448990 
	C735.640320,106.351631 735.332520,106.254272 734.225647,105.919739 
	C732.860229,105.932175 731.494812,105.944611 729.951233,105.445564 
	C729.642029,105.347107 729.332764,105.248657 728.095398,104.990654 
	C584.722168,104.987488 441.348969,104.983871 297.975739,104.988205 
	C296.648132,104.988251 295.320557,105.094490 293.188416,105.009491 
	C291.439270,105.297554 289.690155,105.585625 287.189301,105.901230 
	C286.457306,105.981331 285.725311,106.061440 284.322906,106.008926 
	C283.489868,106.213715 282.656830,106.418503 281.203156,106.760201 
	C280.799805,106.889618 280.396423,107.019035 279.292389,107.013885 
	C277.808777,107.563278 276.325195,108.112671 274.101654,108.827049 
z"/>
<path fill="#F3F3F3" opacity="1.000000" stroke="none" 
	d="
M284.993317,106.141541 
	C285.725311,106.061440 286.457306,105.981331 287.801208,106.182625 
	C290.273041,106.026390 292.132996,105.588768 293.992950,105.151146 
	C295.320557,105.094490 296.648132,104.988251 297.975739,104.988205 
	C441.348969,104.983871 584.722168,104.987488 728.690979,105.267448 
	C729.529114,105.760117 729.810059,105.897720 730.129395,105.957047 
	C731.494812,105.944611 732.860229,105.932175 734.757690,106.233368 
	C735.531982,106.761002 735.811951,106.897644 736.129639,106.956924 
	C736.129639,106.956924 736.576599,106.983620 736.868164,107.403931 
	C738.484680,108.200508 739.809753,108.576767 741.134766,108.953026 
	C741.134766,108.953026 741.593384,108.990479 741.952881,109.269897 
	C742.575195,109.760193 742.873840,109.886261 743.208313,109.927513 
	C751.686523,114.432693 754.800537,122.362061 754.884338,131.059448 
	C755.216675,165.546219 755.022522,200.038040 755.022522,234.528000 
	C755.022461,334.498871 754.912659,434.469971 755.124817,534.440369 
	C755.161926,551.911560 750.414429,567.656860 741.237305,582.210632 
	C710.080994,631.621155 678.912659,681.024597 647.566467,730.314697 
	C633.138550,753.001953 612.036072,764.862793 585.294434,764.907898 
	C444.835785,765.144775 304.376556,765.010925 163.364441,764.558777 
	C160.810791,764.226257 158.810196,764.340820 156.809601,764.455322 
	C155.785309,764.334473 154.761002,764.213562 153.292419,763.633057 
	C151.514587,763.231750 150.181015,763.290039 148.847458,763.348328 
	C124.434898,759.925720 100.168083,737.159790 95.075142,712.570557 
	C93.905716,706.924438 93.070335,701.088501 93.066055,695.339233 
	C92.961235,554.532227 92.989601,413.725128 93.421082,272.380676 
	C93.876305,270.220001 93.904549,268.596710 93.932800,266.973419 
	C94.667969,254.472183 99.077965,243.097214 108.095528,234.741592 
	C120.594742,223.159882 134.078552,212.598846 147.514862,202.078568 
	C181.477753,175.486481 215.513153,148.981827 249.846069,122.871574 
	C257.224274,117.260429 265.980316,113.461021 274.649963,109.033112 
	C276.796539,108.542274 278.394806,107.845360 279.993073,107.148453 
	C280.396423,107.019035 280.799805,106.889618 281.686523,106.987640 
	C283.111053,106.857239 284.052185,106.499390 284.993317,106.141541 
M656.987122,609.007080 
	C656.987122,609.007080 656.979065,609.110596 657.715637,609.185791 
	C669.493713,589.789551 681.271790,570.393250 693.718323,550.891724 
	C694.119812,549.251831 694.521301,547.611877 694.924255,545.302124 
	C695.005798,544.865417 695.087341,544.428711 695.736328,543.912048 
	C695.800354,543.266052 695.864380,542.620056 695.911682,541.304321 
	C695.988403,540.867188 696.065125,540.429993 696.827515,539.849060 
	C696.793762,538.528442 696.760071,537.207886 696.764038,534.964417 
	C696.826111,532.301392 696.942200,529.638306 696.942383,526.975281 
	C696.951538,420.048340 696.950195,313.121429 696.950195,206.194489 
	C696.950195,204.267853 696.950195,202.341217 696.950195,199.661514 
	C681.232971,213.363922 666.099365,226.499557 651.109863,239.797699 
	C650.366455,240.457245 650.433899,242.689041 650.873840,243.920837 
	C654.574524,254.282364 656.989014,264.841370 655.827271,276.274200 
	C655.594421,277.878510 655.158264,279.482727 655.157715,281.087097 
	C655.122498,388.660553 655.117676,496.234039 655.159912,603.807495 
	C655.160583,605.546875 655.773376,607.286011 656.224854,609.648071 
	C656.513489,609.436401 656.802185,609.224731 656.987122,609.007080 
M158.108917,704.652771 
	C160.741943,705.427551 163.374969,706.202393 166.943573,706.935791 
	C304.766327,706.950256 442.589111,706.964722 580.411865,706.978333 
	C581.078369,706.978394 581.749023,707.013123 582.410767,706.953796 
	C592.044250,706.090088 598.974731,700.062134 598.974731,692.484314 
	C598.974731,552.994995 598.965759,413.505646 599.424500,273.690033 
	C598.972412,273.128143 598.520386,272.566284 597.626953,271.501190 
	C595.415894,269.294952 593.204834,267.088715 590.908936,264.289307 
	C590.238708,264.272461 589.568481,264.255646 587.976929,264.158539 
	C529.683289,264.150940 471.389648,264.144318 413.096008,264.135468 
	C329.154633,264.122772 245.213242,264.108459 160.772476,264.211853 
	C160.520386,264.431396 160.268280,264.650970 159.394562,265.185547 
	C152.776123,268.881683 150.219391,274.635803 150.224716,282.072693 
	C150.282944,363.550232 150.270752,445.027893 150.245926,526.505493 
	C150.229019,581.987671 150.161819,637.469849 149.581070,693.322876 
	C150.022247,694.213318 150.463425,695.103821 151.293762,696.551636 
	C153.535507,699.014954 155.777237,701.478271 158.108917,704.652771 
M407.500000,163.020798 
	C374.512756,163.021378 341.525238,162.939194 308.538452,163.064407 
	C295.842285,163.112595 284.152222,166.373123 274.006256,174.572525 
	C260.647156,185.368637 247.036194,195.853165 232.873642,206.990601 
	C234.941071,206.990601 236.350677,206.990585 237.760284,206.990616 
	C357.381104,206.992630 477.001923,206.977448 596.622681,207.076233 
	C600.373535,207.079330 603.250061,205.959091 605.902405,203.564453 
	C615.536804,194.865952 625.214294,186.215088 634.839355,177.506317 
	C639.819519,173.000259 644.723755,168.410278 650.570740,163.020859 
	C568.983887,163.020859 488.741943,163.020859 407.500000,163.020798 
z"/>
<path fill="#FDFEFD" opacity="1.000000" stroke="none" 
	d="
M157.120514,764.697998 
	C158.810196,764.340820 160.810791,764.226257 162.901718,764.476318 
	C161.138504,764.874207 159.284958,764.907410 157.120514,764.697998 
z"/>
<path fill="#FDFDFD" opacity="1.000000" stroke="none" 
	d="
M293.590698,105.080322 
	C292.132996,105.588768 290.273041,106.026390 288.177063,106.168854 
	C289.690155,105.585625 291.439270,105.297554 293.590698,105.080322 
z"/>
<path fill="#FDFEFD" opacity="1.000000" stroke="none" 
	d="
M93.660767,267.236023 
	C93.904549,268.596710 93.876305,270.220001 93.502098,271.917725 
	C93.233665,270.494293 93.311195,268.996429 93.660767,267.236023 
z"/>
<path fill="#FDFDFD" opacity="1.000000" stroke="none" 
	d="
M279.642731,107.081169 
	C278.394806,107.845360 276.796539,108.542274 275.019928,108.950623 
	C276.325195,108.112671 277.808777,107.563278 279.642731,107.081169 
z"/>
<path fill="#FDFEFD" opacity="1.000000" stroke="none" 
	d="
M149.091980,763.621826 
	C150.181015,763.290039 151.514587,763.231750 152.920624,763.520874 
	C151.774231,763.877319 150.555374,763.886292 149.091980,763.621826 
z"/>
<path fill="#FDFDFD" opacity="1.000000" stroke="none" 
	d="
M284.658112,106.075233 
	C284.052185,106.499390 283.111053,106.857239 281.996857,106.919189 
	C282.656830,106.418503 283.489868,106.213715 284.658112,106.075233 
z"/>
<path fill="#FDFDFD" opacity="1.000000" stroke="none" 
	d="
M740.983154,108.631622 
	C739.809753,108.576767 738.484680,108.200508 737.082764,107.467636 
	C738.281128,107.510757 739.556396,107.910484 740.983154,108.631622 
z"/>
<path fill="#FDFDFD" opacity="1.000000" stroke="none" 
	d="
M743.104492,109.671707 
	C742.873840,109.886261 742.575195,109.760193 742.168335,109.350540 
	C742.349731,109.239807 742.675232,109.327850 743.104492,109.671707 
z"/>
<path fill="#FDFDFD" opacity="1.000000" stroke="none" 
	d="
M736.038940,106.702957 
	C735.811951,106.897644 735.531982,106.761002 735.157227,106.351959 
	C735.332520,106.254272 735.640320,106.351631 736.038940,106.702957 
z"/>
<path fill="#FDFDFD" opacity="1.000000" stroke="none" 
	d="
M730.040283,105.701309 
	C729.810059,105.897720 729.529114,105.760117 729.155029,105.347229 
	C729.332764,105.248657 729.642029,105.347107 730.040283,105.701309 
z"/>
<path fill="#010101" opacity="1.000000" stroke="none" 
	d="
M598.958557,274.016296 
	C598.965759,413.505646 598.974731,552.994995 598.974731,692.484314 
	C598.974731,700.062134 592.044250,706.090088 582.410767,706.953796 
	C581.749023,707.013123 581.078369,706.978394 580.411865,706.978333 
	C442.589111,706.964722 304.766327,706.950256 166.208160,706.715332 
	C162.988174,705.643799 160.503571,704.792725 158.018982,703.941650 
	C155.777237,701.478271 153.535507,699.014954 151.133301,695.947754 
	C150.687607,694.546570 150.402359,693.749329 150.117111,692.952026 
	C150.161819,637.469849 150.229019,581.987671 150.245926,526.505493 
	C150.270752,445.027893 150.282944,363.550232 150.224716,282.072693 
	C150.219391,274.635803 152.776123,268.881683 159.986206,265.059601 
	C160.809174,264.654053 161.040527,264.374420 161.271866,264.094818 
	C245.213242,264.108459 329.154633,264.122772 413.096008,264.135468 
	C471.389648,264.144318 529.683289,264.150940 588.580811,264.471619 
	C589.787659,264.817261 590.390747,264.849884 590.993774,264.882477 
	C593.204834,267.088715 595.415894,269.294952 597.832275,272.046875 
	C598.344543,273.067139 598.651550,273.541718 598.958557,274.016296 
M492.079865,441.925629 
	C492.079865,441.925629 492.184753,441.875214 492.034790,441.256439 
	C491.378601,440.469177 490.722412,439.681915 490.020752,438.977631 
	C490.020752,438.977631 490.106018,438.936584 489.941254,438.321381 
	C489.307281,437.510132 488.673309,436.698883 487.854889,435.240509 
	C485.967621,432.803650 484.080353,430.366760 482.030151,427.363922 
	C481.683258,426.910736 481.336334,426.457550 480.849579,425.332336 
	C476.884583,419.860718 472.945526,414.370056 468.949219,408.921387 
	C460.384369,397.243805 451.789948,385.587891 443.036194,373.293732 
	C442.374237,372.483002 441.712250,371.672241 440.907257,370.250366 
	C440.005859,369.141815 439.104462,368.033295 438.010254,366.310333 
	C437.354248,365.500763 436.698212,364.691223 435.887787,363.269226 
	C434.977936,362.160217 434.068085,361.051239 432.978943,359.332977 
	C432.329010,358.527405 431.679077,357.721832 430.863312,356.293274 
	C429.654480,354.832825 428.445648,353.372375 426.916168,351.145264 
	C426.217651,350.794403 425.521423,350.143158 424.820312,350.137909 
	C414.911377,350.063660 405.001099,350.022919 395.093475,350.153717 
	C394.107422,350.166718 393.136902,351.354492 391.991028,352.921387 
	C391.986725,383.509033 391.960907,414.096710 391.985352,444.684326 
	C392.002747,466.457245 392.087830,488.230133 392.071381,510.785645 
	C393.427429,511.441315 394.774536,512.642578 396.141022,512.664978 
	C405.723114,512.822449 415.309753,512.675354 424.893616,512.766174 
	C427.741974,512.793152 429.178741,512.015320 429.054565,508.846985 
	C428.834808,503.238464 428.906921,497.618469 429.008545,491.340240 
	C428.958282,490.892456 428.907990,490.444672 429.001495,489.131561 
	C428.953156,487.088806 428.904816,485.046082 429.008057,482.340210 
	C428.957489,481.892426 428.906921,481.444672 429.000427,480.069733 
	C428.951813,467.714264 428.903198,455.358826 429.006622,442.340271 
	C428.955933,441.892456 428.905243,441.444672 428.998596,440.098602 
	C428.950745,437.066833 428.902924,434.035095 429.007965,430.097595 
	C428.971436,426.730774 428.934906,423.363983 429.105927,419.638550 
	C429.105927,419.638550 429.112274,419.224274 429.686737,419.381805 
	C430.390320,420.279449 431.093872,421.177094 431.968079,422.697540 
	C432.616669,423.508026 433.265259,424.318481 433.964569,425.036713 
	C433.964569,425.036713 433.869690,425.082245 434.034241,425.697052 
	C434.675781,426.503296 435.317291,427.309509 436.116577,428.726013 
	C437.017090,429.839722 437.917603,430.953430 438.988434,432.624481 
	C439.338287,433.077881 439.688141,433.531281 440.153442,434.659485 
	C446.710724,443.790894 453.260925,452.927429 459.826996,462.052490 
	C470.147980,476.395782 480.479675,490.731384 490.982758,505.696655 
	C491.639008,506.509644 492.295288,507.322601 493.132141,508.823456 
	C494.580322,511.765869 496.659271,512.964539 500.200287,512.826965 
	C508.819458,512.491943 517.461853,512.795227 526.092102,512.662292 
	C527.418457,512.641846 528.730164,511.671600 530.568176,510.954132 
	C530.670959,510.641998 530.773682,510.329865 531.038208,509.090454 
	C531.045166,462.870789 531.060059,416.651154 531.049622,370.431488 
	C531.048279,364.286285 530.918091,358.141052 530.700623,351.199402 
	C529.998962,350.822113 529.299072,350.120117 528.595398,350.116272 
	C518.102844,350.058716 507.609039,350.042480 497.117920,350.188538 
	C496.116730,350.202484 495.131561,351.366089 493.964447,352.919495 
	C494.024872,381.947784 494.085327,410.976074 494.002686,440.742828 
	C494.001282,441.494995 493.999847,442.247131 494.000000,443.000000 
	C494.000000,443.000000 493.999084,442.997986 493.389679,443.079163 
	C492.969513,442.659546 492.549347,442.239899 492.079865,441.925629 
M368.079376,603.707825 
	C381.001282,602.857971 393.923187,602.008118 408.324280,601.060974 
	C400.369354,605.480164 393.791656,609.198730 387.153839,612.806702 
	C377.163086,618.237183 366.997711,623.361877 357.167877,629.066772 
	C351.781555,632.192932 347.912262,636.926819 349.221283,643.790894 
	C350.286530,649.376709 356.690765,654.559875 363.587585,654.956970 
	C368.823914,655.258423 374.258301,654.946899 379.385010,653.866272 
	C412.566895,646.872742 445.623169,639.271118 478.855133,632.532288 
	C497.782990,628.694092 516.929565,625.866638 536.047729,623.062012 
	C546.380066,621.546326 556.910339,621.399109 567.257385,619.959290 
	C575.867249,618.761230 580.903137,611.615234 579.999573,603.318115 
	C579.195496,595.933777 572.946777,590.718323 564.537109,591.061096 
	C557.739380,591.338013 550.977295,592.394470 544.184937,592.915955 
	C517.909363,594.933594 491.974213,599.003418 466.443268,605.575867 
	C460.432007,607.123352 454.418060,608.660583 448.405365,610.202454 
	C449.357849,608.314819 450.699219,607.375244 451.874695,606.260681 
	C456.675568,601.708374 462.026581,597.570312 466.048798,592.403015 
	C471.593628,585.279602 469.640594,577.541260 461.306213,574.275818 
	C455.312103,571.927307 448.534302,570.397034 442.134521,570.488525 
	C423.355072,570.756958 404.588440,571.989441 385.819427,572.898376 
	C370.207611,573.654419 354.592804,574.375549 338.991486,575.314209 
	C320.579895,576.422119 302.180756,577.738403 283.777374,578.981140 
	C268.179779,580.034363 252.580658,581.068298 236.987885,582.189331 
	C220.078979,583.404968 203.184143,585.561401 186.269028,585.711548 
	C172.552628,585.833313 168.690079,596.529419 171.831497,606.707825 
	C174.419998,615.094727 178.302979,616.768311 190.038269,615.892700 
	C221.194351,613.568176 252.348419,611.206787 283.518250,609.079224 
	C311.386627,607.177002 339.274902,605.566956 368.079376,603.707825 
M359.149841,383.369293 
	C354.677460,377.854675 350.822052,371.658356 345.619781,366.950195 
	C328.400482,351.366516 307.842102,345.566620 284.830139,347.834076 
	C255.813507,350.693207 235.065186,365.694305 222.479935,391.516296 
	C213.055969,410.852051 211.897354,431.501343 215.918381,452.554321 
	C227.727264,514.382385 296.227112,531.977600 338.538513,501.949615 
	C357.306335,488.630219 367.096527,469.948029 370.052765,447.349945 
	C372.958771,425.135620 371.022278,403.773926 359.149841,383.369293 
z"/>
<path fill="#000000" opacity="1.000000" stroke="none" 
	d="
M408.000000,163.020828 
	C488.741943,163.020859 568.983887,163.020859 650.570740,163.020859 
	C644.723755,168.410278 639.819519,173.000259 634.839355,177.506317 
	C625.214294,186.215088 615.536804,194.865952 605.902405,203.564453 
	C603.250061,205.959091 600.373535,207.079330 596.622681,207.076233 
	C477.001923,206.977448 357.381104,206.992630 237.760284,206.990616 
	C236.350677,206.990585 234.941071,206.990601 232.873642,206.990601 
	C247.036194,195.853165 260.647156,185.368637 274.006256,174.572525 
	C284.152222,166.373123 295.842285,163.112595 308.538452,163.064407 
	C341.525238,162.939194 374.512756,163.021378 408.000000,163.020828 
z"/>
<path fill="#010101" opacity="1.000000" stroke="none" 
	d="
M656.495850,275.927307 
	C656.989014,264.841370 654.574524,254.282364 650.873840,243.920837 
	C650.433899,242.689041 650.366455,240.457245 651.109863,239.797699 
	C666.099365,226.499557 681.232971,213.363922 696.950195,199.661514 
	C696.950195,202.341217 696.950195,204.267853 696.950195,206.194489 
	C696.950195,313.121429 696.951538,420.048340 696.942383,526.975281 
	C696.942200,529.638306 696.826111,532.301392 696.517212,535.700745 
	C696.227539,537.622314 696.184692,538.807617 696.141846,539.992859 
	C696.065125,540.429993 695.988403,540.867188 695.671875,541.800537 
	C695.344299,542.861816 695.256592,543.426880 695.168884,543.992004 
	C695.087341,544.428711 695.005798,544.865417 694.637817,545.838501 
	C693.917480,547.915649 693.483704,549.456299 693.049866,550.997009 
	C681.271790,570.393250 669.493713,589.789551 657.251709,608.681152 
	C656.798828,498.912048 656.811218,389.647614 656.807495,280.383209 
	C656.807495,278.897919 656.604248,277.412598 656.495850,275.927307 
z"/>
<path fill="#D0D0D0" opacity="1.000000" stroke="none" 
	d="
M656.161560,276.100769 
	C656.604248,277.412598 656.807495,278.897919 656.807495,280.383209 
	C656.811218,389.647614 656.798828,498.912048 656.883423,608.643555 
	C656.979065,609.110596 656.987122,609.007080 656.790161,608.912964 
	C656.429016,608.887756 656.264832,608.956543 656.100586,609.025269 
	C655.773376,607.286011 655.160583,605.546875 655.159912,603.807495 
	C655.117676,496.234039 655.122498,388.660553 655.157715,281.087097 
	C655.158264,279.482727 655.594421,277.878510 656.161560,276.100769 
z"/>
<path fill="#FDFEFD" opacity="1.000000" stroke="none" 
	d="
M158.063934,704.297241 
	C160.503571,704.792725 162.988174,705.643799 165.740372,706.736084 
	C163.374969,706.202393 160.741943,705.427551 158.063934,704.297241 
z"/>
<path fill="#FDFEFD" opacity="1.000000" stroke="none" 
	d="
M693.384094,550.944336 
	C693.483704,549.456299 693.917480,547.915649 694.637085,546.173462 
	C694.521301,547.611877 694.119812,549.251831 693.384094,550.944336 
z"/>
<path fill="#FDFEFD" opacity="1.000000" stroke="none" 
	d="
M696.484680,539.920959 
	C696.184692,538.807617 696.227539,537.622314 696.498413,536.162170 
	C696.760071,537.207886 696.793762,538.528442 696.484680,539.920959 
z"/>
<path fill="#FEFEFE" opacity="1.000000" stroke="none" 
	d="
M149.849091,693.137451 
	C150.402359,693.749329 150.687607,694.546570 150.938721,695.669067 
	C150.463425,695.103821 150.022247,694.213318 149.849091,693.137451 
z"/>
<path fill="#FDFEFD" opacity="1.000000" stroke="none" 
	d="
M695.452637,543.952026 
	C695.256592,543.426880 695.344299,542.861816 695.680237,542.135376 
	C695.864380,542.620056 695.800354,543.266052 695.452637,543.952026 
z"/>
<path fill="#FEFEFE" opacity="1.000000" stroke="none" 
	d="
M599.191528,273.853149 
	C598.651550,273.541718 598.344543,273.067139 598.052917,272.298462 
	C598.520386,272.566284 598.972412,273.128143 599.191528,273.853149 
z"/>
<path fill="#FDFEFD" opacity="1.000000" stroke="none" 
	d="
M590.951355,264.585876 
	C590.390747,264.849884 589.787659,264.817261 589.041443,264.511719 
	C589.568481,264.255646 590.238708,264.272461 590.951355,264.585876 
z"/>
<path fill="#010101" opacity="1.000000" stroke="none" 
	d="
M656.162720,609.336670 
	C656.264832,608.956543 656.429016,608.887756 656.842041,608.916016 
	C656.802185,609.224731 656.513489,609.436401 656.162720,609.336670 
z"/>
<path fill="#FDFEFD" opacity="1.000000" stroke="none" 
	d="
M161.022171,264.153320 
	C161.040527,264.374420 160.809174,264.654053 160.296997,264.902100 
	C160.268280,264.650970 160.520386,264.431396 161.022171,264.153320 
z"/>
<path fill="#F2F2F3" opacity="1.000000" stroke="none" 
	d="
M367.616882,603.767944 
	C339.274902,605.566956 311.386627,607.177002 283.518250,609.079224 
	C252.348419,611.206787 221.194351,613.568176 190.038269,615.892700 
	C178.302979,616.768311 174.419998,615.094727 171.831497,606.707825 
	C168.690079,596.529419 172.552628,585.833313 186.269028,585.711548 
	C203.184143,585.561401 220.078979,583.404968 236.987885,582.189331 
	C252.580658,581.068298 268.179779,580.034363 283.777374,578.981140 
	C302.180756,577.738403 320.579895,576.422119 338.991486,575.314209 
	C354.592804,574.375549 370.207611,573.654419 385.819427,572.898376 
	C404.588440,571.989441 423.355072,570.756958 442.134521,570.488525 
	C448.534302,570.397034 455.312103,571.927307 461.306213,574.275818 
	C469.640594,577.541260 471.593628,585.279602 466.048798,592.403015 
	C462.026581,597.570312 456.675568,601.708374 451.874695,606.260681 
	C450.699219,607.375244 449.357849,608.314819 448.405365,610.202454 
	C454.418060,608.660583 460.432007,607.123352 466.443268,605.575867 
	C491.974213,599.003418 517.909363,594.933594 544.184937,592.915955 
	C550.977295,592.394470 557.739380,591.338013 564.537109,591.061096 
	C572.946777,590.718323 579.195496,595.933777 579.999573,603.318115 
	C580.903137,611.615234 575.867249,618.761230 567.257385,619.959290 
	C556.910339,621.399109 546.380066,621.546326 536.047729,623.062012 
	C516.929565,625.866638 497.782990,628.694092 478.855133,632.532288 
	C445.623169,639.271118 412.566895,646.872742 379.385010,653.866272 
	C374.258301,654.946899 368.823914,655.258423 363.587585,654.956970 
	C356.690765,654.559875 350.286530,649.376709 349.221283,643.790894 
	C347.912262,636.926819 351.781555,632.192932 357.167877,629.066772 
	C366.997711,623.361877 377.163086,618.237183 387.153839,612.806702 
	C393.791656,609.198730 400.369354,605.480164 408.324280,601.060974 
	C393.923187,602.008118 381.001282,602.857971 367.616882,603.767944 
z"/>
<path fill="#F3F3F3" opacity="1.000000" stroke="none" 
	d="
M428.857697,489.996887 
	C428.907990,490.444672 428.958282,490.892456 428.547424,491.774963 
	C427.724182,493.728699 427.115021,495.237152 427.049438,496.768921 
	C426.893433,500.411285 427.160828,504.076935 426.893005,507.706299 
	C426.810150,508.829254 425.544525,510.807648 424.836578,510.800476 
	C413.937073,510.689911 403.040192,510.315857 392.142700,510.003021 
	C392.087830,488.230133 392.002747,466.457245 391.985352,444.684326 
	C391.960907,414.096710 391.986725,383.509033 392.533600,352.460907 
	C404.463043,351.970947 415.849945,351.941437 427.236816,351.911926 
	C428.445648,353.372375 429.654480,354.832825 430.946930,356.975159 
	C431.739777,358.418762 432.449005,359.180481 433.158234,359.942230 
	C434.068085,361.051239 434.977936,362.160217 435.960144,363.951294 
	C436.756012,365.397186 437.479523,366.160980 438.203064,366.924774 
	C439.104462,368.033295 440.005859,369.141815 440.970276,370.933594 
	C441.758057,372.385590 442.482880,373.154327 443.207672,373.923096 
	C451.789948,385.587891 460.384369,397.243805 468.949219,408.921387 
	C472.945526,414.370056 476.884583,419.860718 480.689789,425.853455 
	C481.084381,426.893036 481.638733,427.411438 482.193115,427.929871 
	C484.080353,430.366760 485.967621,432.803650 487.942810,435.932800 
	C488.722504,437.395599 489.414246,438.166107 490.106018,438.936584 
	C490.106018,438.936584 490.020752,438.977631 490.030640,439.308899 
	C490.755280,440.385193 491.470032,441.130188 492.184753,441.875214 
	C492.184753,441.875214 492.079865,441.925629 492.072571,442.216461 
	C492.298828,443.162994 492.532440,443.818726 492.766022,444.474426 
	C493.177032,443.982269 493.588074,443.490143 493.999084,442.997986 
	C493.999084,442.997986 494.000000,443.000000 494.327759,442.953552 
	C494.485565,441.939514 494.315643,440.971954 494.145752,440.004364 
	C494.085327,410.976074 494.024872,381.947784 494.511536,352.459839 
	C506.988251,351.998718 518.917908,351.997284 530.847534,351.995850 
	C530.918091,358.141052 531.048279,364.286285 531.049622,370.431488 
	C531.060059,416.651154 531.045166,462.870789 530.754761,509.686523 
	C530.242004,510.525024 530.101135,510.811035 530.048645,511.140625 
	C528.730164,511.671600 527.418457,512.641846 526.092102,512.662292 
	C517.461853,512.795227 508.819458,512.491943 500.200287,512.826965 
	C496.659271,512.964539 494.580322,511.765869 493.050110,508.102844 
	C492.247650,506.611603 491.527252,505.840912 490.806824,505.070251 
	C480.479675,490.731384 470.147980,476.395782 459.826996,462.052490 
	C453.260925,452.927429 446.710724,443.790894 440.321106,434.134857 
	C439.931885,433.095886 439.375000,432.581512 438.818115,432.067139 
	C437.917603,430.953430 437.017090,429.839722 436.042786,428.050293 
	C435.269196,426.610504 434.569427,425.846375 433.869690,425.082245 
	C433.869690,425.082245 433.964569,425.036713 433.957733,424.706543 
	C433.233063,423.609161 432.515259,422.841980 431.797424,422.074768 
	C431.093872,421.177094 430.390320,420.279449 429.253815,419.059692 
	C428.356079,418.838379 427.891296,418.939117 427.426483,419.039886 
	C427.917114,419.358978 428.407745,419.678070 428.898376,419.997162 
	C428.934906,423.363983 428.971436,426.730774 428.555420,430.648315 
	C426.721100,434.590240 425.416870,437.975464 428.854553,440.996857 
	C428.905243,441.444672 428.955933,441.892456 428.545502,442.775330 
	C427.727448,443.898529 427.063812,444.584778 427.059479,445.275146 
	C426.990814,456.194489 426.958893,467.114868 427.084045,478.033142 
	C427.095428,479.027679 428.238708,480.009277 428.856354,480.996887 
	C428.906921,481.444672 428.957489,481.892426 428.569092,482.759216 
	C426.505096,485.650391 425.811371,488.023163 428.857697,489.996887 
z"/>
<path fill="#F3F3F3" opacity="1.000000" stroke="none" 
	d="
M359.380829,383.656555 
	C371.022278,403.773926 372.958771,425.135620 370.052765,447.349945 
	C367.096527,469.948029 357.306335,488.630219 338.538513,501.949615 
	C296.227112,531.977600 227.727264,514.382385 215.918381,452.554321 
	C211.897354,431.501343 213.055969,410.852051 222.479935,391.516296 
	C235.065186,365.694305 255.813507,350.693207 284.830139,347.834076 
	C307.842102,345.566620 328.400482,351.366516 345.619781,366.950195 
	C350.822052,371.658356 354.677460,377.854675 359.380829,383.656555 
M331.074677,449.583191 
	C335.178619,437.366241 334.559082,425.114105 330.893402,412.992279 
	C326.214417,397.519470 312.470123,386.122894 297.038788,385.107147 
	C280.287354,384.004486 266.648376,389.816986 258.554535,405.135193 
	C251.839844,417.843262 250.769287,431.515900 253.609497,445.587952 
	C255.797043,456.426147 260.880920,465.481079 269.950134,471.823242 
	C292.906982,487.877289 324.013000,476.023804 331.074677,449.583191 
z"/>
<path fill="#F7F7F8" opacity="1.000000" stroke="none" 
	d="
M392.107056,510.394348 
	C403.040192,510.315857 413.937073,510.689911 424.836578,510.800476 
	C425.544525,510.807648 426.810150,508.829254 426.893005,507.706299 
	C427.160828,504.076935 426.893433,500.411285 427.049438,496.768921 
	C427.115021,495.237152 427.724182,493.728699 428.471619,492.106476 
	C428.906921,497.618469 428.834808,503.238464 429.054565,508.846985 
	C429.178741,512.015320 427.741974,512.793152 424.893616,512.766174 
	C415.309753,512.675354 405.723114,512.822449 396.141022,512.664978 
	C394.774536,512.642578 393.427429,511.441315 392.107056,510.394348 
z"/>
<path fill="#F7F7F8" opacity="1.000000" stroke="none" 
	d="
M428.928406,480.533325 
	C428.238708,480.009277 427.095428,479.027679 427.084045,478.033142 
	C426.958893,467.114868 426.990814,456.194489 427.059479,445.275146 
	C427.063812,444.584778 427.727448,443.898529 428.469482,443.106873 
	C428.903198,455.358826 428.951813,467.714264 428.928406,480.533325 
z"/>
<path fill="#F9F9F9" opacity="1.000000" stroke="none" 
	d="
M530.774048,351.597626 
	C518.917908,351.997284 506.988251,351.998718 494.598755,351.998108 
	C495.131561,351.366089 496.116730,350.202484 497.117920,350.188538 
	C507.609039,350.042480 518.102844,350.058716 528.595398,350.116272 
	C529.299072,350.120117 529.998962,350.822113 530.774048,351.597626 
z"/>
<path fill="#F7F7F8" opacity="1.000000" stroke="none" 
	d="
M427.076477,351.528595 
	C415.849945,351.941437 404.463043,351.970947 392.617676,351.998718 
	C393.136902,351.354492 394.107422,350.166718 395.093475,350.153717 
	C405.001099,350.022919 414.911377,350.063660 424.820312,350.137909 
	C425.521423,350.143158 426.217651,350.794403 427.076477,351.528595 
z"/>
<path fill="#F7F7F8" opacity="1.000000" stroke="none" 
	d="
M428.926575,440.547729 
	C425.416870,437.975464 426.721100,434.590240 428.478973,431.101196 
	C428.902924,434.035095 428.950745,437.066833 428.926575,440.547729 
z"/>
<path fill="#F7F7F8" opacity="1.000000" stroke="none" 
	d="
M428.929596,489.564209 
	C425.811371,488.023163 426.505096,485.650391 428.493317,483.090759 
	C428.904816,485.046082 428.953156,487.088806 428.929596,489.564209 
z"/>
<path fill="#F9F9F9" opacity="1.000000" stroke="none" 
	d="
M494.074219,440.373596 
	C494.315643,440.971954 494.485565,441.939514 494.326965,442.953186 
	C493.999847,442.247131 494.001282,441.494995 494.074219,440.373596 
z"/>
<path fill="#F7F7F8" opacity="1.000000" stroke="none" 
	d="
M433.068604,359.637604 
	C432.449005,359.180481 431.739777,358.418762 431.029846,357.286621 
	C431.679077,357.721832 432.329010,358.527405 433.068604,359.637604 
z"/>
<path fill="#F7F7F8" opacity="1.000000" stroke="none" 
	d="
M431.882751,422.386169 
	C432.515259,422.841980 433.233063,423.609161 433.932373,424.752655 
	C433.265259,424.318481 432.616669,423.508026 431.882751,422.386169 
z"/>
<path fill="#F7F7F8" opacity="1.000000" stroke="none" 
	d="
M433.951965,425.389648 
	C434.569427,425.846375 435.269196,426.610504 435.963867,427.745178 
	C435.317291,427.309509 434.675781,426.503296 433.951965,425.389648 
z"/>
<path fill="#F7F7F8" opacity="1.000000" stroke="none" 
	d="
M443.121948,373.608398 
	C442.482880,373.154327 441.758057,372.385590 441.041779,371.239166 
	C441.712250,371.672241 442.374237,372.483002 443.121948,373.608398 
z"/>
<path fill="#F9F9F9" opacity="1.000000" stroke="none" 
	d="
M490.023621,438.628967 
	C489.414246,438.166107 488.722504,437.395599 488.035034,436.256378 
	C488.673309,436.698883 489.307281,437.510132 490.023621,438.628967 
z"/>
<path fill="#F9F9F9" opacity="1.000000" stroke="none" 
	d="
M492.109772,441.565826 
	C491.470032,441.130188 490.755280,440.385193 490.053406,439.267395 
	C490.722412,439.681915 491.378601,440.469177 492.109772,441.565826 
z"/>
<path fill="#F9F9F9" opacity="1.000000" stroke="none" 
	d="
M493.694397,443.038574 
	C493.588074,443.490143 493.177032,443.982269 492.766022,444.474426 
	C492.532440,443.818726 492.298828,443.162994 492.097229,442.163757 
	C492.549347,442.239899 492.969513,442.659546 493.694397,443.038574 
z"/>
<path fill="#F7F7F8" opacity="1.000000" stroke="none" 
	d="
M438.106659,366.617554 
	C437.479523,366.160980 436.756012,365.397186 436.037323,364.257538 
	C436.698212,364.691223 437.354248,365.500763 438.106659,366.617554 
z"/>
<path fill="#F9F9F9" opacity="1.000000" stroke="none" 
	d="
M490.894775,505.383453 
	C491.527252,505.840912 492.247650,506.611603 492.959808,507.758911 
	C492.295288,507.322601 491.639008,506.509644 490.894775,505.383453 
z"/>
<path fill="#F7F7F8" opacity="1.000000" stroke="none" 
	d="
M438.903259,432.345825 
	C439.375000,432.581512 439.931885,433.095886 440.263428,433.797455 
	C439.688141,433.531281 439.338287,433.077881 438.903259,432.345825 
z"/>
<path fill="#F9F9F9" opacity="1.000000" stroke="none" 
	d="
M482.111633,427.646912 
	C481.638733,427.411438 481.084381,426.893036 480.759705,426.189453 
	C481.336334,426.457550 481.683258,426.910736 482.111633,427.646912 
z"/>
<path fill="#F7F7F8" opacity="1.000000" stroke="none" 
	d="
M429.002167,419.817871 
	C428.407745,419.678070 427.917114,419.358978 427.426483,419.039886 
	C427.891296,418.939117 428.356079,418.838379 428.966583,418.980957 
	C429.112274,419.224274 429.105927,419.638550 429.002167,419.817871 
z"/>
<path fill="#F9F9F9" opacity="1.000000" stroke="none" 
	d="
M530.308411,511.047394 
	C530.101135,510.811035 530.242004,510.525024 530.673828,510.150146 
	C530.773682,510.329865 530.670959,510.641998 530.308411,511.047394 
z"/>
<path fill="#010101" opacity="1.000000" stroke="none" 
	d="
M331.031677,449.989380 
	C324.013000,476.023804 292.906982,487.877289 269.950134,471.823242 
	C260.880920,465.481079 255.797043,456.426147 253.609497,445.587952 
	C250.769287,431.515900 251.839844,417.843262 258.554535,405.135193 
	C266.648376,389.816986 280.287354,384.004486 297.038788,385.107147 
	C312.470123,386.122894 326.214417,397.519470 330.893402,412.992279 
	C334.559082,425.114105 335.178619,437.366241 331.031677,449.989380 
z"/>
</svg>